HIERARCHY
ROOT Hips
{
	OFFSET 0.00000 0.00000 0.00000
	CHANNELS 6 Xposition Yposition Zposition Zrotation Yrotation Xrotation 
	JOINT LHipJoint
	{
		OFFSET 0 0 0
		CHANNELS 3 Zrotation Yrotation Xrotation
		JOINT LeftUpLeg
		{
			OFFSET 1.62329 -1.80800 0.67318
			CHANNELS 3 Zrotation Yrotation Xrotation
			JOINT LeftLeg
			{
				OFFSET 2.57139 -7.06484 0.00000
				CHANNELS 3 Zrotation Yrotation Xrotation
				JOINT LeftFoot
				{
					OFFSET 2.52017 -6.92413 0.00000
					CHANNELS 3 Zrotation Yrotation Xrotation
					JOINT LeftToeBase
					{
						OFFSET 0.23295 -0.64001 2.10214
						CHANNELS 3 Zrotation Yrotation Xrotation
						End Site
						{
							OFFSET 0.00000 -0.00000 1.10139
						}
					}
				}
			}
		}
	}
	JOINT RHipJoint
	{
		OFFSET 0 0 0
		CHANNELS 3 Zrotation Yrotation Xrotation
		JOINT RightUpLeg
		{
			OFFSET -1.48061 -1.80800 0.67318
			CHANNELS 3 Zrotation Yrotation Xrotation
			JOINT RightLeg
			{
				OFFSET -2.63258 -7.23296 0.00000
				CHANNELS 3 Zrotation Yrotation Xrotation
				JOINT RightFoot
				{
					OFFSET -2.54779 -7.00000 0.00000
					CHANNELS 3 Zrotation Yrotation Xrotation
					JOINT RightToeBase
					{
						OFFSET -0.23067 -0.63376 2.12161
						CHANNELS 3 Zrotation Yrotation Xrotation
						End Site
						{
							OFFSET -0.00000 -0.00000 1.11000
						}
					}
				}
			}
		}
	}
	JOINT LowerBack
	{
		OFFSET 0 0 0
		CHANNELS 3 Zrotation Yrotation Xrotation
		JOINT Spine
		{
			OFFSET -0.02108 2.07573 -0.16981
			CHANNELS 3 Zrotation Yrotation Xrotation
			JOINT Spine1
			{
				OFFSET 0.05070 2.08439 -0.03141
				CHANNELS 3 Zrotation Yrotation Xrotation
				JOINT Neck
				{
					OFFSET 0 0 0
					CHANNELS 3 Zrotation Yrotation Xrotation
					JOINT Neck1
					{
						OFFSET -0.10731 1.60408 0.31370
						CHANNELS 3 Zrotation Yrotation Xrotation
						JOINT Head
						{
							OFFSET 0.08411 1.65679 -0.30822
							CHANNELS 3 Zrotation Yrotation Xrotation
							End Site
							{
								OFFSET 0.03911 1.69149 -0.14146
							}
						}
					}
				}
				JOINT LeftShoulder
				{
					OFFSET 0 0 0
					CHANNELS 3 Zrotation Yrotation Xrotation
					JOINT LeftArm
					{
						OFFSET 3.52315 0.73219 -0.54694
						CHANNELS 3 Zrotation Yrotation Xrotation
						JOINT LeftForeArm
						{
							OFFSET 5.32462 -0.00000 -0.00000
							CHANNELS 3 Zrotation Yrotation Xrotation
							JOINT LeftHand
							{
								OFFSET 3.48402 -0.00000 -0.00000
								CHANNELS 3 Zrotation Yrotation Xrotation
								JOINT LeftFingerBase
								{
									OFFSET 0 0 0
									CHANNELS 3 Zrotation Yrotation Xrotation
									JOINT LeftHandIndex1
									{
										OFFSET 0.57248 -0.00000 -0.00000
										CHANNELS 3 Zrotation Yrotation Xrotation
										End Site
										{
											OFFSET 0.46154 -0.00000 -0.00000
										}
									}
								}
								JOINT LThumb
								{
									OFFSET 0 0 0
									CHANNELS 3 Zrotation Yrotation Xrotation
									End Site
									{
										OFFSET 0.46859 -0.00000 0.46859
									}
								}
							}
						}
					}
				}
				JOINT RightShoulder
				{
					OFFSET 0 0 0
					CHANNELS 3 Zrotation Yrotation Xrotation
					JOINT RightArm
					{
						OFFSET -3.41766 0.93592 -0.10019
						CHANNELS 3 Zrotation Yrotation Xrotation
						JOINT RightForeArm
						{
							OFFSET -5.33589 -0.00000 -0.00000
							CHANNELS 3 Zrotation Yrotation Xrotation
							JOINT RightHand
							{
								OFFSET -3.64134 -0.00000 -0.00000
								CHANNELS 3 Zrotation Yrotation Xrotation
								JOINT RightFingerBase
								{
									OFFSET 0 0 0
									CHANNELS 3 Zrotation Yrotation Xrotation
									JOINT RightHandIndex1
									{
										OFFSET -0.73481 -0.00000 -0.00000
										CHANNELS 3 Zrotation Yrotation Xrotation
										End Site
										{
											OFFSET -0.59242 -0.00000 -0.00000
										}
									}
								}
								JOINT RThumb
								{
									OFFSET 0 0 0
									CHANNELS 3 Zrotation Yrotation Xrotation
									End Site
									{
										OFFSET -0.60147 -0.00000 0.60147
									}
								}
							}
						}
					}
				}
			}
		}
	}
}
MOTION
Frames: 6
Frame Time: 0.0210526
0.00 0.00 0.00 0 0 0 0 0 0 -21 0 0 0 0 0 0 0 0 0 0 0 0 0 0 21 0 0 0 0 0 0 0 0 0 0 0 0 0 0 0 0 0 0 0 0 0 0 -16 0 0 21 0 0 11 0 0 0 -8 0 0 0 0 0 0 0 0 0 0 0 0 0 0 0 0 0 0 0 0 8 0 0 0 0 0 0 0 0 0 0 0 0 0 0 0 0 0
0.00 0.00 0.00 -12.4960 -78.4339 14.4060 0.0000 0.0000 0.0000 -20.9575 -3.9985 -8.4517 2.8515 10.4507 30.4489 1.3978 -1.4863 -21.9218 0.0277 -1.0750 -2.9551 0.0000 0.0000 0.0000 17.2975 2.5598 -17.4611 -5.6084 -14.0378 43.3890 -0.4856 9.3582 -13.1326 -0.1456 -2.4591 6.7764 -6.6409 0.1581 1.3173 -0.8241 0.0376 -1.0502 2.8711 0.0911 -1.8301 -15.0998 -8.3305 -23.0863 13.9773 -8.0626 -21.3945 6.5311 -3.6945 -1.7890 -0.0000 0.0000 0.0000 -77.7188 1.7535 28.6333 19.0089 -29.4298 -5.0352 -0.0000 -0.0000 3.8124 10.3394 24.0783 4.2569 -7.1250 0.0000 -0.0000 -19.6821 53.3169 -4.1529 -0.0000 0.0000 0.0000 29.1531 14.8612 -5.2807 -59.1843 56.0886 -33.6632 0.0000 0.0000 9.5465 -31.8809 0.9987 -0.6211 7.1250 -0.0000 -0.0000 -4.1361 -28.7937 -1.6364
0.00 0.00 0.00 -19.7575 -74.3602 20.2702 0.0000 0.0000 0.0000 -15.9837 -3.3294 -8.6189 3.5291 11.5059 34.0056 1.4051 -4.5560 -21.3809 0.1346 -2.3643 -6.5137 0.0000 0.0000 0.0000 22.1308 1.7537 -14.1702 -5.3551 -13.7729 42.3352 -0.6096 7.6057 -14.1018 -0.0708 -1.7163 4.7222 -2.7323 -0.1299 2.7215 -1.4938 -0.3996 -2.9934 0.0154 -0.1464 -4.6117 -16.1815 -9.5780 -20.6263 15.3295 -9.5464 -19.8960 6.9787 -4.3542 -1.2593 0.0000 -0.0000 0.0000 -70.9011 -2.8666 28.1635 18.5245 -28.8236 -4.7994 -0.0000 -0.0000 8.7729 10.7421 24.2066 4.4479 -7.1250 0.0000 -0.0000 -19.3597 53.5102 -4.1740 0.0000 -0.0000 0.0000 -15.7332 16.2044 -31.2860 -47.4178 51.8994 -24.1267 0.0000 0.0000 11.8623 -40.6371 3.4748 -2.9777 7.1250 -0.0000 -0.0000 -10.5243 -25.3912 -5.0764
0.00 0.00 0.00 -24.6963 -71.5879 23.6881 0.0000 0.0000 0.0000 -9.9974 -3.6941 -10.1022 4.6839 13.0188 39.4388 0.7719 -7.9593 -15.8031 0.6654 -5.2167 -14.5277 0.0000 0.0000 0.0000 27.6162 2.1265 -10.1676 -4.6973 -13.0346 39.4982 -0.6807 3.6722 -14.7742 -0.0410 -1.3068 3.5933 -0.8729 -0.2685 4.2953 -3.5010 -0.7178 -4.2986 -3.1014 -0.4409 -6.9397 -13.8106 -10.3640 -21.3653 14.8020 -10.9539 -15.9957 6.0855 -5.0664 0.0756 0.0000 0.0000 0.0000 -66.9369 -4.5238 28.0815 21.6570 -32.5872 -6.4001 -0.0000 -0.0000 5.4057 16.3648 24.7770 7.0158 -7.1250 0.0000 -0.0000 -14.0654 55.1149 -3.5450 0.0000 0.0000 0.0000 -46.5750 19.9420 -57.2580 -19.5354 30.0785 -5.2965 0.0000 0.0000 23.0152 -31.6348 3.4050 -2.0955 7.1250 -0.0000 -0.0000 -3.8022 -25.9797 -1.7560
0.00 0.00 0.00 -29.7703 -71.7448 27.7175 0.0000 0.0000 0.0000 -4.1294 0.9275 -12.3355 5.2295 13.6377 41.8052 -0.5379 -13.8076 -0.2702 0.1268 -2.2953 -6.3226 0.0000 0.0000 0.0000 29.5388 -0.2051 -8.1439 -3.9656 -12.1144 36.1380 -0.1729 2.2089 -7.3984 -0.0934 -1.9707 5.4248 0.1351 0.3575 5.0114 -4.8979 0.0246 -4.9325 -5.2677 -0.2102 -8.0167 -13.0583 -11.3608 -22.1078 15.9372 -12.3281 -15.1975 6.0959 -5.7225 0.6608 -0.0000 0.0000 0.0000 -67.9962 -2.3599 30.7723 26.0250 -37.2334 -8.9028 -0.0000 -0.0000 0.0999 17.1613 22.2428 6.6673 -7.1250 0.0000 -0.0000 -12.1095 52.7476 -2.3362 -0.0000 0.0000 0.0000 -54.3584 23.9341 -69.6274 -17.2942 27.2439 -4.2211 0.0000 0.0000 25.5240 -29.6345 0.3477 -0.1978 7.1250 -0.0000 -0.0000 -2.4094 -29.5757 -0.9070
0.00 0.00 0.00 -32.7464 -74.0041 31.1812 0.0000 0.0000 0.0000 -0.5147 -8.5723 -8.0113 3.5122 11.4813 33.9209 -0.0004 -2.4937 -1.7193 1.4177 -7.5301 -21.2957 0.0000 0.0000 0.0000 26.5277 1.6713 -7.2303 -3.2039 -11.0180 32.3407 -0.1541 -7.1600 8.0309 -0.2105 -2.9541 8.1511 1.1429 1.2769 4.5795 -5.1530 1.2222 -6.7130 -6.3240 0.2162 -9.5805 -15.7636 -12.4287 -21.0124 16.4074 -13.2578 -14.0701 6.5280 -6.0388 1.1772 -0.0000 -0.0000 0.0000 -60.2000 -3.2893 34.4389 35.3186 -45.0383 -15.0384 -0.0000 -0.0000 3.1841 12.1103 18.6848 3.9323 -7.1250 0.0000 -0.0000 -15.5534 48.4258 -1.3445 -0.0000 -0.0000 0.0000 -55.8530 26.5545 -68.2647 -14.9844 24.1244 -3.2196 0.0000 0.0000 28.6342 -27.5651 -2.7426 1.4308 7.1250 -0.0000 -0.0000 -0.7870 -33.0721 -0.2301
